<svg width="310" height="32" viewBox="0 0 310 32" fill="none" xmlns="http://www.w3.org/2000/svg">
<g style="mix-blend-mode:difference">
<path d="M300.221 22.4853C300.221 21.7742 299.908 21.2053 299.282 20.7787C298.656 20.3236 297.632 19.9964 296.21 19.7973L290.749 18.9867C286.539 18.3324 283.467 17.2373 281.533 15.7013C279.627 14.1653 278.674 12.0604 278.674 9.38667C278.674 6.42844 280.011 4.12445 282.685 2.47467C285.387 0.82489 289.099 0 293.821 0C302.553 0 307.445 3.05778 308.498 9.17333L299.751 10.0267C299.296 8.77511 298.585 7.87911 297.618 7.33867C296.651 6.76978 295.286 6.48533 293.522 6.48533C291.645 6.48533 290.194 6.71289 289.17 7.168C288.174 7.62311 287.677 8.27733 287.677 9.13067C287.677 9.84178 287.947 10.3822 288.487 10.752C289.028 11.1218 290.023 11.4204 291.474 11.648L298.13 12.7147C302.084 13.3404 304.942 14.4071 306.706 15.9147C308.47 17.3938 309.351 19.4844 309.351 22.1867C309.351 25.4293 308.043 27.8756 305.426 29.5253C302.809 31.1751 298.955 32 293.863 32C283.851 32 278.518 28.4444 277.863 21.3333H286.909C287.449 24.1209 289.782 25.5147 293.906 25.5147C298.116 25.5147 300.221 24.5049 300.221 22.4853Z" fill="white"/>
<path d="M248.44 31.232H239.096L252.323 0.768005H263.075L276.302 31.232H266.744L264.483 25.6853H250.574L248.44 31.232ZM257.571 7.72267L253.219 18.8587H261.923L257.571 7.72267Z" fill="white"/>
<path d="M203.083 0.768005H211.276L226.507 19.072V0.768005H235.211V31.232H227.019L211.787 12.928V31.232H203.083V0.768005Z" fill="white"/>
<path d="M171.357 31.232H162.013L175.239 0.768005H185.991L199.218 31.232H189.661L187.399 25.6853H173.49L171.357 31.232ZM180.487 7.72267L176.135 18.8587H184.839L180.487 7.72267Z" fill="white"/>
<path d="M119.167 0.768005H129.578L138.751 21.376L147.882 0.768005H158.079V31.232H149.631V13.4827L141.908 31.232H135.167L127.487 13.568V31.232H119.167V0.768005Z" fill="white"/>
<path d="M103.042 0.768005H112.258V31.232H103.042V0.768005Z" fill="white"/>
<path d="M71.3147 31.232H61.9707L75.1974 0.768005H85.9494L99.176 31.232H89.6187L87.3574 25.6853H73.448L71.3147 31.232ZM80.4454 7.72267L76.0934 18.8587H84.7974L80.4454 7.72267Z" fill="white"/>
<path d="M34 0.768005H43.216V23.7653H60.5387L59.6 31.232H34V0.768005Z" fill="white"/>
<path d="M0 0.768005H15.1467C24.2773 0.768005 28.8427 4.28089 28.8427 11.3067C28.8427 14.9191 27.6622 17.5929 25.3013 19.328C22.9689 21.0347 19.4133 21.888 14.6347 21.888H8.91733V31.232H0V0.768005ZM19.8827 11.264C19.8827 9.95556 19.456 9.0169 18.6027 8.448C17.7493 7.87912 16.3982 7.59467 14.5493 7.59467H8.91733V15.0613H14.464C16.3129 15.0613 17.6782 14.7769 18.56 14.208C19.4418 13.6391 19.8827 12.6578 19.8827 11.264Z" fill="white"/>
</g>
</svg>
